<svg xmlns="http://www.w3.org/2000/svg" xmlns:xlink="http://www.w3.org/1999/xlink" width="25.9375" height="25.940673828125" viewBox="0 0 25.9375 25.940673828125" fill="none">
  <path d="M0 0.40625L0 5.26875C0 5.49375 0.18125 5.675 0.40625 5.675L5.26875 5.675C5.49375 5.675 5.675 5.49375 5.675 5.26875L5.675 0.40625C5.675 0.18125 5.49375 0 5.26875 0L0.40625 0C0.18125 0.00312495 0 0.184375 0 0.40625ZM4.45937 4.45937L1.21562 4.45937L1.21562 1.21875L4.45625 1.21875L4.45625 4.45937L4.45937 4.45937ZM20.2625 0.40625L20.2625 5.26875C20.2625 5.49375 20.4437 5.675 20.6687 5.675L25.5312 5.675C25.7562 5.675 25.9375 5.49375 25.9375 5.26875L25.9375 0.40625C25.9375 0.18125 25.7562 0 25.5312 0L20.6687 0C20.4437 0.00312495 20.2625 0.184375 20.2625 0.40625ZM24.7219 4.45937L21.4781 4.45937L21.4781 1.21875L24.7187 1.21875L24.7187 4.45937L24.7219 4.45937ZM20.2625 20.6719L20.2625 25.5344C20.2625 25.7594 20.4437 25.9406 20.6687 25.9406L25.5312 25.9406C25.7562 25.9406 25.9375 25.7594 25.9375 25.5344L25.9375 20.6719C25.9375 20.4469 25.7562 20.2656 25.5312 20.2656L20.6687 20.2656C20.4437 20.2656 20.2625 20.4469 20.2625 20.6719ZM24.7219 24.7219L21.4781 24.7219L21.4781 21.4812L24.7187 21.4812L24.7187 24.7219L24.7219 24.7219ZM0 20.6719L0 25.5344C0 25.7594 0.18125 25.9406 0.40625 25.9406L5.26875 25.9406C5.49375 25.9406 5.675 25.7594 5.675 25.5344L5.675 20.6719C5.675 20.4469 5.49375 20.2656 5.26875 20.2656L0.40625 20.2656C0.18125 20.2656 0 20.4469 0 20.6719ZM4.45937 24.7219L1.21562 24.7219L1.21562 21.4812L4.45625 21.4812L4.45625 24.7219L4.45937 24.7219ZM18.3625 19.5406L6.325 7.50625C6.00937 7.19062 6.00937 6.675 6.325 6.35937C6.64062 6.04375 7.15625 6.04375 7.47187 6.35937L19.5094 18.3969C19.825 18.7125 19.825 19.2281 19.5094 19.5437C19.1906 19.8562 18.6781 19.8562 18.3625 19.5406ZM1.8375 5.675L3.8375 5.675L3.8375 20.2656L1.8375 20.2656L1.8375 5.675ZM5.675 1.8375L20.2656 1.8375L20.2656 3.8375L5.675 3.8375L5.675 1.8375ZM5.675 22.1031L20.2656 22.1031L20.2656 24.1031L5.675 24.1031L5.675 22.1031ZM22.1 5.675L24.1 5.675L24.1 20.2656L22.1 20.2656L22.1 5.675Z"   fill="#FFFFFF" >
  </path>
</svg>
