<svg xmlns="http://www.w3.org/2000/svg" xmlns:xlink="http://www.w3.org/1999/xlink" width="36" height="36" viewBox="0 0 36 36" fill="none">
  <path d="M18.2953 18.3936L33.6457 25.2816L28.1354 28.0368L25.3802 33.5472L18.2953 18.3936ZM29.9066 4.42077L29.9066 8.35679L27.9385 8.35679L27.9385 4.42077L24.0025 4.42077L24.0025 2.45276L29.9066 2.45276L29.9066 4.42077ZM4.3225 28.0368L8.25852 28.0368L8.25852 30.0048L2.35449 30.0048L2.35449 24.1008L4.3225 24.1008L4.3225 28.0368ZM4.3225 4.42077L4.3225 8.35679L2.35449 8.35679L2.35449 2.45276L8.25852 2.45276L8.25852 4.42077L4.3225 4.42077ZM12.1945 2.45276L20.0665 2.45276L20.0665 4.42077L12.1945 4.42077L12.1945 2.45276ZM12.1945 28.0368L20.0665 28.0368L20.0665 30.0048L12.1945 30.0048L12.1945 28.0368ZM2.35449 12.2928L4.3225 12.2928L4.3225 20.1648L2.35449 20.1648L2.35449 12.2928ZM27.9385 12.2928L29.9065 12.2928L29.9065 20.1648L27.9385 20.1648L27.9385 12.2928Z"   fill="#FFFFFF" >
  </path>
</svg>
