<svg xmlns="http://www.w3.org/2000/svg" xmlns:xlink="http://www.w3.org/1999/xlink" width="33" height="33" viewBox="0 0 33 33" fill="none">
  <path d="M14.5734 4.73428L3.59744 15.7103C3.17615 16.1316 2.49985 16.1316 2.07855 15.7103C1.65725 15.289 1.66279 14.6127 2.07855 14.1914L13.0545 3.21539C13.4758 2.79409 14.1521 2.79409 14.5734 3.21539C14.9947 3.63668 14.9947 4.31299 14.5734 4.73428Z"   fill="#FFFFFF" >
  </path>
  <path d="M29.7843 19.9394L18.8084 30.9154C18.3871 31.3367 17.7108 31.3367 17.2895 30.9154C16.8682 30.4941 16.8737 29.8178 17.2895 29.3965L28.2654 18.4205C28.6867 17.9992 29.363 17.9992 29.7843 18.4205C30.2056 18.8418 30.2001 19.5236 29.7843 19.9394Z"   fill="#FFFFFF" >
  </path>
  <path d="M14.54 20.0068L11.2195 23.3273C10.7982 23.7485 10.1219 23.7485 9.70062 23.3273C9.27932 22.906 9.28486 22.2297 9.70062 21.8083L13.0211 18.4878C13.4424 18.0666 14.1187 18.0666 14.54 18.4878C14.9613 18.9091 14.9613 19.591 14.54 20.0068Z"   fill="#FFFFFF" >
  </path>
  <path d="M9.61753 16.9189L7.2117 19.3247C6.7904 19.746 6.11413 19.746 5.69283 19.3247C5.2715 18.9034 5.27704 18.2271 5.69283 17.8058L8.09867 15.4C8.51997 14.9787 9.19624 14.9787 9.61753 15.4C10.0333 15.8213 10.0333 16.5031 9.61753 16.9189Z"   fill="#FFFFFF" >
  </path>
  <path d="M17.5726 24.8788L15.1668 27.2847C14.7455 27.706 14.0692 27.706 13.6479 27.2847C13.2266 26.8634 13.2321 26.1871 13.6479 25.7658L16.0537 23.3599C16.475 22.9386 17.1513 22.9386 17.5726 23.3599C17.9939 23.7812 17.9939 24.4575 17.5726 24.8788Z"   fill="#FFFFFF" >
  </path>
  <path d="M17.2843 30.9157L2.07867 15.7156C1.65737 15.2943 1.65737 14.618 2.07867 14.1967C2.49997 13.7754 3.17627 13.781 3.59756 14.1967L18.8032 29.4023C19.2245 29.8236 19.2245 30.4999 18.8032 30.9212C18.3819 31.337 17.7056 31.337 17.2843 30.9157Z"   fill="#FFFFFF" >
  </path>
  <path d="M23.5978 24.6068L8.39214 9.40116C7.97085 8.97986 7.97085 8.30356 8.39214 7.88226C8.81344 7.46096 9.48975 7.4665 9.91105 7.88226L25.1111 23.0879C25.5324 23.5091 25.5324 24.1855 25.1111 24.6068C24.6954 25.0281 24.0135 25.0225 23.5978 24.6068Z"   fill="#FFFFFF" >
  </path>
  <path d="M29.4024 7.07316L25.9322 3.59744C25.5109 3.17614 25.5109 2.49985 25.9322 2.07855C26.3535 1.65725 27.0298 1.66279 27.4511 2.07855L30.9213 5.55426C31.3426 5.97556 31.3426 6.65186 30.9213 7.07316C30.5 7.49446 29.8181 7.49446 29.4024 7.07316Z"   fill="#FFFFFF" >
  </path>
  <path d="M18.9254 10.5936L13.066 4.73416C12.6447 4.31286 12.6447 3.63656 13.066 3.21527C13.4873 2.79397 14.1636 2.79951 14.5849 3.21527L20.4498 9.08019C20.8711 9.50149 20.8711 10.1778 20.4498 10.5991C20.0285 11.0149 19.3467 11.0149 18.9254 10.5936Z"   fill="#FFFFFF" >
  </path>
  <path d="M28.2662 19.9344L22.4068 14.075C21.9855 13.6537 21.9855 12.9774 22.4068 12.5561C22.8281 12.1348 23.5044 12.1403 23.9257 12.5561L29.7906 18.421C30.2119 18.8423 30.2119 19.5186 29.7906 19.9399C29.3693 20.3557 28.6875 20.3557 28.2662 19.9344Z"   fill="#FFFFFF" >
  </path>
  <path d="M30.9155 7.07316L23.9197 14.069C23.4984 14.4903 22.8221 14.4903 22.4008 14.069C21.9795 13.6477 21.9851 12.9714 22.4008 12.5501L29.3966 5.55425C29.8179 5.13296 30.4942 5.13296 30.9155 5.55425C31.3368 5.97001 31.3368 6.65186 30.9155 7.07316Z"   fill="#FFFFFF" >
  </path>
  <path d="M27.4455 3.59756L20.4441 10.5934C20.0228 11.0147 19.3465 11.0147 18.9252 10.5934C18.5039 10.1721 18.5095 9.49578 18.9252 9.07448L25.9266 2.07867C26.3479 1.65737 27.0242 1.65737 27.4455 2.07867C27.8668 2.49997 27.8612 3.17627 27.4455 3.59756Z"   fill="#FFFFFF" >
  </path>
</svg>
