<svg xmlns="http://www.w3.org/2000/svg" xmlns:xlink="http://www.w3.org/1999/xlink" width="30" height="32" viewBox="0 0 30 32" fill="none">
  <path d="M27.777 14.8942C27.8074 14.8934 27.8379 14.8933 27.8683 14.8939C27.8988 14.8945 27.9292 14.8958 27.9596 14.8977C27.99 14.8997 28.0203 14.9024 28.0506 14.9057C28.0808 14.909 28.111 14.9131 28.1412 14.9178C28.1713 14.9225 28.2013 14.9279 28.2312 14.9339C28.2611 14.94 28.2909 14.9467 28.3205 14.9541C28.3502 14.9615 28.3796 14.9696 28.409 14.9783C28.4383 14.9871 28.4674 14.9965 28.4964 15.0065C28.5253 15.0166 28.554 15.0273 28.5826 15.0387C28.6111 15.05 28.6393 15.062 28.6674 15.0747C28.6955 15.0873 28.7232 15.1006 28.7508 15.1144C28.7782 15.1284 28.8055 15.1429 28.8324 15.158C28.8594 15.1731 28.886 15.1888 28.9123 15.2051C28.9386 15.2215 28.9646 15.2384 28.9903 15.2559C29.0159 15.2734 29.0412 15.2915 29.0661 15.3101C29.091 15.3288 29.1156 15.3479 29.1397 15.3677C29.1639 15.3874 29.1876 15.4078 29.211 15.4286C29.2343 15.4494 29.2573 15.4708 29.2798 15.4926C29.3023 15.5145 29.3245 15.5369 29.3461 15.5597C29.3676 15.5826 29.3887 15.6059 29.4095 15.6297C29.43 15.6536 29.4502 15.6779 29.4701 15.7026C29.4897 15.7273 29.5091 15.7525 29.5278 15.7781C29.5466 15.8037 29.5647 15.8297 29.5823 15.8561C29.5999 15.8825 29.6172 15.9094 29.6339 15.9365C29.6503 15.9638 29.6664 15.9913 29.6822 16.0193C29.6975 16.0472 29.7124 16.0754 29.7271 16.104C29.7414 16.1327 29.7552 16.1616 29.7687 16.1908C29.7818 16.2201 29.7944 16.2496 29.8064 16.2794C29.8185 16.3092 29.8299 16.3392 29.841 16.3695C29.8519 16.3999 29.8621 16.4304 29.8718 16.4612C29.8814 16.492 29.8905 16.523 29.899 16.5542C29.9072 16.5854 29.9151 16.6168 29.9225 16.6483C29.9295 16.6799 29.9362 16.7116 29.9421 16.7434C29.948 16.7753 29.9535 16.8073 29.9582 16.8393C29.9629 16.8714 29.9667 16.9036 29.9702 16.9359C29.9734 16.9681 29.9761 17.0005 29.9784 17.0329C29.9805 17.0653 29.9819 17.0977 29.9828 17.1301C29.9834 17.1626 29.9837 17.1951 29.9834 17.2275C29.9828 17.26 29.9816 17.2924 29.9799 17.3249C29.9781 17.3573 29.9758 17.3897 29.9729 17.4219C29.9696 17.4543 29.9658 17.4865 29.9617 17.5186C29.9573 17.5508 29.9523 17.5828 29.9468 17.6147C29.9409 17.6467 29.9348 17.6784 29.928 17.71C29.921 17.7417 29.9137 17.7732 29.9055 17.8044C29.8973 17.8358 29.8888 17.8669 29.8794 17.8978C29.87 17.9287 29.8601 17.9594 29.8495 17.9898C29.839 18.0202 29.8278 18.0504 29.8161 18.0804C29.8041 18.1103 29.7918 18.14 29.7789 18.1694C29.766 18.1988 29.7525 18.2279 29.7385 18.2566C29.7241 18.2854 29.7095 18.3139 29.6942 18.3419C29.679 18.3701 29.6632 18.3979 29.6471 18.4252C29.6307 18.4526 29.6137 18.4796 29.5964 18.5063C29.5788 18.5329 29.5609 18.5591 29.5425 18.5849C29.524 18.6108 29.505 18.6362 29.4856 18.6611C29.466 18.6861 29.4461 18.7106 29.4259 18.7347C29.4054 18.7588 29.3843 18.7824 29.3631 18.8055C29.3416 18.8286 29.3198 18.8512 29.2975 18.8734C29.2752 18.8955 29.2525 18.9171 29.2294 18.9382C29.2063 18.9593 29.1827 18.9799 29.1588 18.9999C29.1348 19.02 29.1105 19.0395 29.0857 19.0584C29.061 19.0774 29.0359 19.0957 29.0105 19.1135C28.985 19.1314 28.9592 19.1486 28.9331 19.1652C28.9069 19.1819 28.8805 19.1979 28.8537 19.2133C28.8269 19.2288 28.7998 19.2436 28.7725 19.2578L28.7725 29.4396C28.7724 29.4554 28.772 29.4713 28.7713 29.487C28.7706 29.5028 28.7695 29.5186 28.7681 29.5343C28.7667 29.5501 28.765 29.5658 28.763 29.5814C28.7609 29.5971 28.7586 29.6127 28.7559 29.6282C28.7532 29.6438 28.7501 29.6593 28.7468 29.6747C28.7435 29.6901 28.7398 29.7054 28.7358 29.7206C28.7318 29.7358 28.7275 29.751 28.7229 29.766C28.7183 29.781 28.7134 29.7959 28.7081 29.8107C28.7029 29.8255 28.6973 29.8402 28.6915 29.8547C28.6856 29.8692 28.6795 29.8836 28.673 29.8978C28.6665 29.912 28.6598 29.9261 28.6527 29.94C28.6457 29.9539 28.6384 29.9676 28.6307 29.9812C28.6231 29.9948 28.6152 30.0081 28.607 30.0213C28.5988 30.0345 28.5904 30.0475 28.5817 30.0602C28.5729 30.073 28.564 30.0856 28.5547 30.0979C28.5455 30.1103 28.5359 30.1224 28.5262 30.1343C28.5164 30.1462 28.5064 30.1579 28.4962 30.1693C28.4859 30.1807 28.4754 30.1919 28.4647 30.2028C28.454 30.2137 28.4431 30.2244 28.4319 30.2348C28.4207 30.2452 28.4094 30.2553 28.3978 30.2652C28.3862 30.275 28.3744 30.2846 28.3624 30.2939C28.3504 30.3032 28.3383 30.3122 28.3259 30.3209C28.3135 30.3297 28.301 30.3381 28.2883 30.3462C28.2755 30.3543 28.2626 30.3621 28.2496 30.3696C28.2366 30.3771 28.2234 30.3843 28.21 30.3912C28.1967 30.3981 28.1832 30.4046 28.1696 30.4108C28.156 30.4171 28.1422 30.423 28.1284 30.4286C28.1145 30.4342 28.1005 30.4394 28.0864 30.4443C28.0723 30.4493 28.0582 30.4538 28.0439 30.458C28.0296 30.4623 28.0152 30.4662 28.0008 30.4697C27.9864 30.4733 27.9718 30.4765 27.9573 30.4793C27.9427 30.4822 27.928 30.4848 27.9134 30.4869L18.177 30.4869C18.1587 30.5251 18.1394 30.5626 18.1191 30.5996C18.0988 30.6366 18.0776 30.673 18.0554 30.7088C18.0332 30.7445 18.0101 30.7796 17.9862 30.8139C17.9621 30.8483 17.9373 30.882 17.9115 30.9148C17.8857 30.9478 17.8592 30.9798 17.8317 31.0112C17.8043 31.0425 17.776 31.073 17.747 31.1026C17.718 31.1323 17.6883 31.161 17.6577 31.1889C17.6272 31.2168 17.596 31.2437 17.5641 31.2696C17.5321 31.2957 17.4996 31.3208 17.4663 31.3449C17.4331 31.3691 17.3993 31.3923 17.3648 31.4143C17.3304 31.4364 17.2954 31.4574 17.2599 31.4774C17.2243 31.4974 17.1883 31.5165 17.1518 31.5343C17.1153 31.5521 17.0783 31.569 17.0409 31.5846C17.0035 31.6002 16.9657 31.6149 16.9276 31.6283C16.8894 31.6418 16.851 31.654 16.8122 31.6652C16.7734 31.6765 16.7343 31.6865 16.695 31.6952C16.6557 31.704 16.6161 31.7118 16.5764 31.7183C16.5367 31.7249 16.4968 31.7302 16.4569 31.7343C16.4169 31.7383 16.3768 31.7415 16.3367 31.743C16.2965 31.7449 16.2563 31.7455 16.2162 31.7449C16.176 31.7443 16.1359 31.7424 16.0958 31.7393C16.0557 31.7365 16.0157 31.7321 15.9758 31.7268C15.936 31.7215 15.8963 31.7149 15.8567 31.7071C15.8172 31.6993 15.7779 31.6905 15.7388 31.6805C15.6998 31.6705 15.661 31.6593 15.6225 31.6471C15.584 31.6346 15.5459 31.6212 15.5082 31.6065C15.4704 31.5918 15.433 31.5762 15.396 31.5593C15.3591 31.5424 15.3226 31.5246 15.2866 31.5055C15.2506 31.4865 15.215 31.4665 15.1801 31.4456C15.1451 31.4243 15.1107 31.4021 15.0769 31.379C15.043 31.3559 15.0099 31.3318 14.9773 31.3068C14.9447 31.2816 14.9128 31.2555 14.8816 31.2286C14.8504 31.2016 14.8199 31.1737 14.7902 31.1449C14.7604 31.1161 14.7314 31.0864 14.7032 31.0559C14.675 31.0254 14.6476 30.994 14.6211 30.9619C14.5945 30.9298 14.5687 30.8968 14.5439 30.8631C14.519 30.8295 14.4951 30.7951 14.472 30.76C14.4489 30.7249 14.4268 30.6892 14.4056 30.6527C14.3844 30.6163 14.3642 30.5793 14.3449 30.5417C14.3256 30.5041 14.3073 30.4659 14.29 30.4272C14.2727 30.3885 14.2565 30.3494 14.2413 30.3097C14.226 30.2701 14.2118 30.23 14.1987 30.1895C14.1855 30.149 14.1734 30.1081 14.1624 30.0669C14.1513 30.0257 14.1414 29.9842 14.1326 29.9423C14.1237 29.9005 14.1159 29.8585 14.1092 29.8163C14.1026 29.774 14.097 29.7316 14.0926 29.6889C14.0881 29.6463 14.0847 29.6037 14.0825 29.5608C14.0803 29.5181 14.0792 29.4752 14.0792 29.4323C14.0792 29.3895 14.0803 29.3467 14.0825 29.3039C14.0847 29.2611 14.0881 29.2184 14.0926 29.1758C14.097 29.1332 14.1026 29.0908 14.1092 29.0485C14.1159 29.0062 14.1237 28.9642 14.1326 28.9223C14.1414 28.8806 14.1513 28.8391 14.1624 28.7978C14.1734 28.7566 14.1855 28.7158 14.1987 28.6753C14.2118 28.6348 14.226 28.5947 14.2413 28.555C14.2565 28.5153 14.2727 28.4762 14.29 28.4375C14.3073 28.3988 14.3256 28.3606 14.3449 28.323C14.3642 28.2854 14.3844 28.2484 14.4056 28.212C14.4268 28.1756 14.4489 28.1398 14.472 28.1047C14.4951 28.0697 14.519 28.0353 14.5439 28.0016C14.5687 27.9679 14.5945 27.935 14.6211 27.9028C14.6476 27.8707 14.675 27.8393 14.7032 27.8088C14.7314 27.7783 14.7604 27.7486 14.7902 27.7198C14.8199 27.691 14.8504 27.6631 14.8816 27.6361C14.9128 27.6091 14.9447 27.5831 14.9773 27.5579C15.0099 27.5328 15.043 27.5087 15.0769 27.4856C15.1107 27.4624 15.1451 27.4403 15.1801 27.4192C15.2151 27.3981 15.2506 27.3781 15.2866 27.3591C15.3226 27.3401 15.3591 27.3222 15.396 27.3053C15.433 27.2885 15.4704 27.2728 15.5082 27.2582C15.5459 27.2436 15.584 27.2301 15.6225 27.2178C15.661 27.2054 15.6998 27.1942 15.7388 27.1841C15.7779 27.1741 15.8172 27.1652 15.8567 27.1575C15.8963 27.1498 15.936 27.1432 15.9758 27.1378C16.0157 27.1325 16.0557 27.1283 16.0958 27.1253C16.1359 27.1223 16.176 27.1205 16.2162 27.1199C16.2563 27.1193 16.2965 27.1198 16.3367 27.1216C16.3768 27.1234 16.4169 27.1263 16.4569 27.1304C16.4968 27.1346 16.5367 27.1399 16.5764 27.1464C16.6162 27.1529 16.6557 27.1606 16.695 27.1694C16.7343 27.1783 16.7734 27.1883 16.8122 27.1995C16.851 27.2107 16.8894 27.223 16.9276 27.2364C16.9657 27.2498 17.0035 27.2644 17.0409 27.2801C17.0783 27.2958 17.1153 27.3126 17.1518 27.3304C17.1883 27.3483 17.2243 27.3673 17.2599 27.3873C17.2954 27.4073 17.3304 27.4284 17.3648 27.4505C17.3993 27.4726 17.4331 27.4957 17.4663 27.5198C17.4996 27.5438 17.5321 27.5689 17.5641 27.5949C17.596 27.621 17.6272 27.6479 17.6577 27.6758C17.6883 27.7037 17.718 27.7325 17.747 27.7621C17.776 27.7918 17.8043 27.8223 17.8317 27.8536C17.8592 27.8849 17.8857 27.917 17.9115 27.9499C17.9373 27.9828 17.9621 28.0164 17.9862 28.0508C18.0101 28.0852 18.0332 28.1202 18.0554 28.156C18.0776 28.1917 18.0988 28.2281 18.1191 28.2651C18.1394 28.3021 18.1587 28.3397 18.177 28.3778L26.7679 28.3778L26.7679 19.2287C26.7406 19.2145 26.7136 19.1998 26.6869 19.1843C26.6602 19.1689 26.6338 19.1529 26.6078 19.1363C26.5817 19.1197 26.5559 19.1025 26.5306 19.0848C26.5052 19.067 26.4801 19.0487 26.4555 19.0298C26.4308 19.0109 26.4065 18.9915 26.3826 18.9715C26.3587 18.9515 26.3352 18.931 26.3122 18.9099C26.2891 18.8889 26.2664 18.8674 26.2442 18.8453C26.2219 18.8232 26.2002 18.8007 26.1789 18.7776C26.1575 18.7546 26.1366 18.731 26.1162 18.707C26.0958 18.6831 26.0759 18.6586 26.0565 18.6337C26.0371 18.6089 26.0181 18.5835 25.9997 18.5578C25.9812 18.532 25.9633 18.5059 25.946 18.4794C25.9286 18.4528 25.9117 18.4259 25.8954 18.3986C25.879 18.3713 25.8633 18.3436 25.8481 18.3156C25.8328 18.2876 25.8181 18.2592 25.8041 18.2305C25.7899 18.2018 25.7764 18.1729 25.7634 18.1435C25.7505 18.1143 25.7381 18.0847 25.7263 18.0548C25.7146 18.025 25.7034 17.9949 25.6928 17.9645C25.6822 17.9342 25.6722 17.9036 25.6628 17.8728C25.6534 17.842 25.6447 17.811 25.6365 17.7798C25.6284 17.7486 25.6208 17.7172 25.6139 17.6857C25.607 17.6541 25.6007 17.6224 25.5951 17.5906C25.5894 17.5588 25.5844 17.5269 25.5801 17.4948C25.5757 17.4628 25.5719 17.4306 25.5688 17.3984C25.5657 17.3662 25.5632 17.3339 25.5614 17.3016C25.5595 17.2693 25.5583 17.2369 25.5578 17.2045C25.5573 17.1721 25.5573 17.1398 25.5581 17.1074C25.5588 17.075 25.5602 17.0426 25.5622 17.0103C25.5642 16.978 25.5669 16.9458 25.5702 16.9135C25.5735 16.8814 25.5774 16.8493 25.582 16.8172C25.5866 16.7852 25.5917 16.7533 25.5976 16.7215C25.6034 16.6897 25.6099 16.6581 25.617 16.6266C25.6241 16.5951 25.6318 16.5638 25.6401 16.5326C25.6484 16.5015 25.6573 16.4705 25.6669 16.4398C25.6764 16.409 25.6866 16.3785 25.6974 16.3482C25.7081 16.318 25.7195 16.2879 25.7315 16.2582C25.7434 16.2284 25.7559 16.1989 25.7691 16.1697C25.7822 16.1405 25.7959 16.1116 25.8101 16.083C25.8244 16.0544 25.8392 16.0261 25.8547 15.9982C25.87 15.9703 25.886 15.9427 25.9025 15.9155C25.9189 15.8883 25.9359 15.8615 25.9535 15.8351C25.971 15.8086 25.9891 15.7826 26.0077 15.757C26.0262 15.7314 26.0453 15.7062 26.0649 15.6814C26.0845 15.6567 26.1045 15.6324 26.1251 15.6085C26.1456 15.5846 26.1666 15.5613 26.1881 15.5383C26.2095 15.5154 26.2314 15.493 26.2538 15.4711C26.2761 15.4492 26.2989 15.4278 26.3221 15.4069C26.3453 15.386 26.3689 15.3656 26.393 15.3458C26.4169 15.326 26.4413 15.3067 26.4661 15.2879C26.4909 15.2692 26.516 15.2511 26.5415 15.2334C26.567 15.2159 26.5928 15.1989 26.619 15.1824C26.6452 15.166 26.6717 15.1502 26.6985 15.1349C26.7252 15.1197 26.7523 15.105 26.7797 15.091C26.8071 15.077 26.8347 15.0636 26.8626 15.0509C26.8905 15.0381 26.9187 15.0259 26.9471 15.0144C26.9754 15.0029 27.0041 14.9921 27.0329 14.9819C27.0617 14.9717 27.0907 14.9621 27.1199 14.9532C27.1491 14.9444 27.1785 14.9361 27.208 14.9285C27.2375 14.9209 27.2671 14.914 27.297 14.9078C27.3267 14.9015 27.3566 14.896 27.3867 14.8911C27.4167 14.8862 27.4468 14.882 27.477 14.8784C27.5071 14.8749 27.5374 14.8721 27.5677 14.8699C27.598 14.8677 27.6283 14.8663 27.6587 14.8654C27.689 14.8646 27.7194 14.8645 27.7497 14.8651L27.777 14.8942ZM20.6861 0.596015L28.4043 8.84326C28.4187 8.85989 28.4328 8.87686 28.4465 8.89417C28.4602 8.91151 28.4735 8.92917 28.4865 8.94714C28.4994 8.96514 28.5119 8.98342 28.5241 9.00201C28.5362 9.02064 28.5479 9.03954 28.5592 9.05873C28.5705 9.07792 28.5814 9.09739 28.5918 9.11711C28.6023 9.13686 28.6123 9.15682 28.6219 9.17704C28.6314 9.19729 28.6405 9.21776 28.6493 9.23845C28.6579 9.25914 28.6661 9.28004 28.6739 9.30111C28.6816 9.32223 28.6889 9.34351 28.6958 9.36495C28.7026 9.38642 28.709 9.40804 28.7148 9.42982C28.7207 9.4516 28.7261 9.47351 28.731 9.49554C28.736 9.5176 28.7404 9.53979 28.7443 9.56204C28.7483 9.58432 28.7517 9.60667 28.7547 9.62911C28.7577 9.65154 28.7601 9.67404 28.7621 9.6966C28.7641 9.71917 28.7656 9.74179 28.7666 9.76442C28.7676 9.78704 28.7681 9.8097 28.7681 9.83236C28.7681 9.85504 28.7676 9.8777 28.7666 9.90032C28.7656 9.92298 28.7641 9.94557 28.7621 9.96814C28.7601 9.9907 28.7577 10.0132 28.7547 10.0356C28.7517 10.0581 28.7483 10.0804 28.7443 10.1027C28.7404 10.125 28.736 10.1471 28.731 10.1692C28.7261 10.1912 28.7207 10.2131 28.7148 10.2349C28.709 10.2567 28.7026 10.2783 28.6958 10.2998C28.6889 10.3212 28.6816 10.3425 28.6739 10.3636C28.6661 10.3847 28.6579 10.4056 28.6493 10.4263C28.6405 10.447 28.6314 10.4674 28.6219 10.4877C28.6123 10.5079 28.6023 10.5279 28.5918 10.5476C28.5814 10.5674 28.5705 10.5868 28.5592 10.606C28.5479 10.6252 28.5362 10.6441 28.5241 10.6627C28.5119 10.6813 28.4994 10.6996 28.4865 10.7176C28.4735 10.7356 28.4602 10.7532 28.4465 10.7705C28.4328 10.7879 28.4187 10.8049 28.4043 10.8214L10.0361 30.4142C10.0205 30.4298 10.0045 30.4451 9.98822 30.46C9.97193 30.4748 9.95532 30.4893 9.93839 30.5033C9.92146 30.5173 9.9042 30.5309 9.88668 30.5441C9.86913 30.5573 9.85132 30.57 9.83324 30.5822C9.81514 30.5945 9.79677 30.6063 9.77816 30.6176C9.75953 30.629 9.74066 30.6398 9.72156 30.6502C9.70246 30.6606 9.68313 30.6705 9.66361 30.6799C9.64404 30.6894 9.62433 30.6983 9.60441 30.7067C9.58445 30.7152 9.56436 30.7231 9.54408 30.7305C9.52378 30.7379 9.50333 30.7448 9.48276 30.7512C9.46217 30.7576 9.44146 30.7634 9.42063 30.7688C9.39977 30.7741 9.37879 30.7789 9.35775 30.7832C9.33666 30.7875 9.31554 30.7913 9.29433 30.7945C9.27309 30.7977 9.25179 30.8004 9.23046 30.8026C9.2091 30.8047 9.18772 30.8063 9.1663 30.8074C9.14488 30.8085 9.12347 30.809 9.10202 30.809C9.08058 30.809 9.05913 30.8085 9.03774 30.8074C9.0163 30.8063 8.99491 30.8047 8.97359 30.8026C8.95223 30.8004 8.93093 30.7977 8.90972 30.7945C8.88848 30.7913 8.86732 30.7875 8.84629 30.7832C8.82523 30.7789 8.80428 30.7741 8.78342 30.7688C8.76256 30.7634 8.74185 30.7576 8.72128 30.7512C8.70068 30.7448 8.68023 30.7379 8.65996 30.7305C8.63969 30.7231 8.61956 30.7152 8.59964 30.7067C8.57969 30.6983 8.55994 30.6894 8.54043 30.6799C8.52089 30.6705 8.50158 30.6606 8.48248 30.6502C8.46338 30.6398 8.44451 30.629 8.42588 30.6176C8.40725 30.6063 8.38891 30.5945 8.3708 30.5822C8.3527 30.57 8.33488 30.5573 8.31736 30.5441C8.29982 30.5309 8.28259 30.5173 8.26565 30.5033C8.24872 30.4893 8.23208 30.4748 8.21579 30.46C8.1995 30.4451 8.18354 30.4298 8.16792 30.4142L0.44974 22.1814C0.435291 22.1649 0.421217 22.1479 0.407512 22.1305C0.393807 22.1132 0.380488 22.0956 0.367559 22.0776C0.354627 22.0596 0.342097 22.0413 0.329968 22.0227C0.317839 22.0041 0.306123 21.9852 0.29482 21.966C0.28352 21.9468 0.272646 21.9274 0.262198 21.9076C0.25175 21.8879 0.24174 21.8679 0.232168 21.8477C0.222595 21.8274 0.213471 21.807 0.204796 21.7863C0.19612 21.7656 0.187902 21.7447 0.180142 21.7236C0.172382 21.7025 0.165088 21.6813 0.15826 21.6598C0.151433 21.6383 0.145079 21.6167 0.139199 21.5949C0.133318 21.5732 0.127918 21.5512 0.122999 21.5292C0.118079 21.5071 0.113644 21.485 0.109696 21.4627C0.105747 21.4404 0.102288 21.4181 0.0993183 21.3956C0.0963491 21.3732 0.0938731 21.3507 0.09189 21.3281C0.0899068 21.3056 0.0884189 21.283 0.0874264 21.2603C0.0864338 21.2377 0.0859375 21.215 0.0859375 21.1924C0.0859375 21.1697 0.0864338 21.147 0.0874264 21.1244C0.0884189 21.1018 0.0899068 21.0792 0.09189 21.0566C0.0938731 21.034 0.0963491 21.0115 0.0993183 20.9891C0.102288 20.9667 0.105747 20.9443 0.109696 20.922C0.113644 20.8998 0.118079 20.8776 0.122999 20.8556C0.127918 20.8335 0.133318 20.8116 0.139199 20.7898C0.145079 20.7681 0.151433 20.7464 0.15826 20.7249C0.165088 20.7035 0.172382 20.6822 0.180142 20.6611C0.187902 20.64 0.19612 20.6191 0.204796 20.5984C0.213471 20.5778 0.222595 20.5573 0.232168 20.537C0.24174 20.5168 0.25175 20.4969 0.262198 20.4771C0.272646 20.4574 0.28352 20.4379 0.29482 20.4187C0.306123 20.3995 0.317839 20.3806 0.329968 20.362C0.342097 20.3434 0.354627 20.3251 0.367559 20.3071C0.380488 20.2892 0.393807 20.2715 0.407512 20.2542C0.421217 20.2369 0.435291 20.2199 0.44974 20.2033L18.8179 0.596015C18.8335 0.58035 18.8495 0.565084 18.8658 0.550225C18.8821 0.535359 18.8987 0.520912 18.9157 0.506886C18.9326 0.492859 18.9498 0.479265 18.9674 0.466105C18.9849 0.452944 19.0027 0.440232 19.0208 0.427967C19.0389 0.415702 19.0572 0.403901 19.0759 0.392561C19.0945 0.381221 19.1134 0.370356 19.1325 0.359964C19.1516 0.349572 19.1709 0.339667 19.1904 0.330248C19.2099 0.32083 19.2297 0.311907 19.2496 0.303482C19.2696 0.295056 19.2897 0.287136 19.31 0.279722C19.3302 0.272307 19.3507 0.265407 19.3713 0.259021C19.3918 0.252635 19.4126 0.246771 19.4334 0.241427C19.4543 0.236084 19.4752 0.231267 19.4963 0.226978C19.5174 0.222689 19.5385 0.218932 19.5597 0.215707C19.5809 0.212482 19.6022 0.209792 19.6236 0.207638C19.6449 0.205484 19.6663 0.203868 19.6877 0.202789C19.7091 0.201711 19.7306 0.201172 19.752 0.201172C19.7735 0.201172 19.7949 0.201711 19.8163 0.202789C19.8377 0.203868 19.8591 0.205484 19.8805 0.207638C19.9018 0.209792 19.9231 0.212482 19.9443 0.215707C19.9655 0.218932 19.9867 0.222689 20.0078 0.226978C20.0288 0.231267 20.0498 0.236084 20.0706 0.241427C20.0915 0.246771 20.1122 0.252635 20.1328 0.259021C20.1533 0.265407 20.1738 0.272307 20.1941 0.279722C20.2144 0.287136 20.2345 0.295056 20.2544 0.303482C20.2743 0.311907 20.2941 0.32083 20.3136 0.330248C20.3331 0.339667 20.3525 0.349572 20.3716 0.359964C20.3907 0.370356 20.4095 0.381221 20.4282 0.392561C20.4468 0.403901 20.4651 0.415702 20.4832 0.427967C20.5013 0.440232 20.5191 0.452944 20.5367 0.466105C20.5542 0.479265 20.5715 0.492859 20.5884 0.506886C20.6053 0.520912 20.6219 0.535359 20.6382 0.550225C20.6545 0.565084 20.6705 0.58035 20.6861 0.596015ZM16.2679 28.4651C16.2543 28.4651 16.2407 28.4655 16.2271 28.4662C16.2135 28.4669 16.1999 28.4679 16.1864 28.4693C16.1729 28.4708 16.1593 28.4726 16.1459 28.4747C16.1324 28.4768 16.119 28.4793 16.1056 28.4821C16.0923 28.485 16.079 28.4882 16.0658 28.4917C16.0526 28.4952 16.0395 28.4991 16.0265 28.5033C16.0134 28.5075 16.0005 28.5121 15.9877 28.5169C15.9749 28.5218 15.9622 28.5271 15.9496 28.5326C15.937 28.5382 15.9246 28.5441 15.9123 28.5503C15.9 28.5565 15.8878 28.563 15.8758 28.5698C15.8638 28.5767 15.852 28.5839 15.8403 28.5913C15.8286 28.5988 15.8171 28.6066 15.8058 28.6146C15.7945 28.6227 15.7834 28.6311 15.7724 28.6397C15.7615 28.6483 15.7507 28.6573 15.7402 28.6665C15.7297 28.6757 15.7194 28.6852 15.7093 28.6949C15.6992 28.7047 15.6894 28.7147 15.6798 28.725C15.6701 28.7352 15.6607 28.7458 15.6516 28.7565C15.6425 28.7673 15.6336 28.7783 15.6249 28.7895C15.6163 28.8007 15.6079 28.8122 15.5998 28.8238C15.5917 28.8355 15.5839 28.8473 15.5763 28.8594C15.5687 28.8715 15.5614 28.8838 15.5545 28.8962C15.5475 28.9087 15.5407 28.9213 15.5343 28.9341C15.5279 28.9469 15.5218 28.9599 15.516 28.973C15.5102 28.9861 15.5047 28.9994 15.4994 29.0128C15.4942 29.0263 15.4893 29.0398 15.4847 29.0534C15.4801 29.0671 15.4759 29.0809 15.4719 29.0948C15.468 29.1087 15.4643 29.1227 15.461 29.1368C15.4577 29.1508 15.4547 29.165 15.4521 29.1793C15.4494 29.1935 15.4471 29.2078 15.4451 29.2222C15.4431 29.2365 15.4415 29.2509 15.4401 29.2654C15.4388 29.2798 15.4378 29.2943 15.4371 29.3088C15.4364 29.3233 15.4361 29.3378 15.4361 29.3523C15.4359 29.367 15.436 29.3817 15.4364 29.3963C15.4369 29.411 15.4377 29.4257 15.4388 29.4403C15.44 29.4549 15.4415 29.4695 15.4433 29.484C15.4451 29.4986 15.4472 29.5131 15.4497 29.5275C15.4522 29.5419 15.4551 29.5563 15.4582 29.5706C15.4614 29.5849 15.4649 29.5991 15.4687 29.6132C15.4725 29.6273 15.4766 29.6412 15.4811 29.6551C15.4855 29.669 15.4904 29.6828 15.4955 29.6964C15.5006 29.71 15.506 29.7235 15.5117 29.7368C15.5175 29.7502 15.5235 29.7633 15.5299 29.7763C15.5362 29.7894 15.5429 29.8022 15.5498 29.8149C15.5567 29.8276 15.564 29.84 15.5715 29.8523C15.579 29.8646 15.5869 29.8767 15.5949 29.8885C15.603 29.9004 15.6114 29.912 15.62 29.9235C15.6286 29.9349 15.6375 29.9461 15.6467 29.957C15.6558 29.968 15.6652 29.9787 15.6749 29.9892C15.6845 29.9997 15.6944 30.0098 15.7045 30.0198C15.7147 30.0297 15.725 30.0394 15.7356 30.0488C15.7461 30.0582 15.7569 30.0673 15.7679 30.0761C15.7789 30.0849 15.7901 30.0934 15.8015 30.1016C15.8129 30.1099 15.8245 30.1178 15.8362 30.1254C15.848 30.133 15.8599 30.1403 15.872 30.1473C15.8841 30.1543 15.8963 30.1609 15.9088 30.1673C15.9212 30.1736 15.9337 30.1796 15.9464 30.1853C15.9591 30.1909 15.9719 30.1963 15.9849 30.2013C15.9978 30.2063 16.0108 30.2109 16.024 30.2152C16.0371 30.2195 16.0504 30.2235 16.0637 30.227C16.0771 30.2307 16.0905 30.2339 16.104 30.2368C16.1175 30.2397 16.131 30.2422 16.1446 30.2444C16.1582 30.2466 16.1718 30.2484 16.1855 30.2498C16.1992 30.2513 16.2129 30.2524 16.2267 30.2531C16.2404 30.2538 16.2542 30.2542 16.2679 30.2542C16.2817 30.2542 16.2956 30.2538 16.3094 30.2531C16.3232 30.2524 16.337 30.2513 16.3508 30.2498C16.3646 30.2484 16.3783 30.2466 16.392 30.2444C16.4056 30.2423 16.4193 30.2397 16.4329 30.2368C16.4464 30.234 16.4599 30.2308 16.4734 30.2272C16.4868 30.2236 16.5001 30.2196 16.5133 30.2153C16.5266 30.2111 16.5397 30.2064 16.5527 30.2014C16.5658 30.1965 16.5787 30.1912 16.5915 30.1855C16.6042 30.1799 16.6169 30.1739 16.6294 30.1676C16.6419 30.1613 16.6543 30.1547 16.6665 30.1477C16.6787 30.1408 16.6907 30.1335 16.7026 30.1259C16.7144 30.1183 16.7261 30.1104 16.7376 30.1022C16.7491 30.094 16.7604 30.0855 16.7716 30.0767C16.7827 30.0679 16.7936 30.0588 16.8043 30.0495C16.815 30.0401 16.8254 30.0305 16.8357 30.0206C16.8459 30.0107 16.856 30.0005 16.8658 29.99C16.8755 29.9796 16.8851 29.9689 16.8944 29.958C16.9037 29.947 16.9127 29.9359 16.9215 29.9245C16.9302 29.9131 16.9387 29.9014 16.947 29.8896C16.9552 29.8777 16.9632 29.8657 16.9709 29.8534C16.9786 29.8411 16.986 29.8287 16.9931 29.816C17.0002 29.8033 17.007 29.7905 17.0136 29.7775C17.0201 29.7645 17.0263 29.7513 17.0322 29.7379C17.0381 29.7246 17.0437 29.7111 17.049 29.6975C17.0543 29.6838 17.0593 29.6701 17.0639 29.6562C17.0686 29.6423 17.0729 29.6283 17.077 29.6141C17.081 29.6 17.0847 29.5858 17.0881 29.5715C17.0914 29.5572 17.0944 29.5428 17.0971 29.5283C17.0998 29.5138 17.1022 29.4993 17.1042 29.4847C17.1063 29.4701 17.108 29.4554 17.1093 29.4408C17.1106 29.4261 17.1117 29.4113 17.1124 29.3966C17.113 29.3819 17.1134 29.3671 17.1134 29.3523C17.1134 29.3377 17.113 29.323 17.1124 29.3083C17.1117 29.2937 17.1106 29.2791 17.1093 29.2645C17.108 29.2499 17.1063 29.2353 17.1042 29.2208C17.1021 29.2063 17.0998 29.1918 17.0971 29.1775C17.0944 29.1631 17.0913 29.1488 17.088 29.1345C17.0846 29.1203 17.0809 29.1062 17.0768 29.0922C17.0728 29.0781 17.0685 29.0642 17.0638 29.0504C17.0591 29.0366 17.0541 29.023 17.0488 29.0094C17.0435 28.9959 17.0378 28.9825 17.0319 28.9693C17.0259 28.956 17.0197 28.943 17.0132 28.93C17.0066 28.9172 16.9998 28.9044 16.9927 28.8919C16.9855 28.8793 16.9781 28.867 16.9704 28.8548C16.9626 28.8427 16.9547 28.8308 16.9464 28.819C16.9381 28.8073 16.9296 28.7958 16.9208 28.7845C16.912 28.7733 16.9029 28.7622 16.8936 28.7514C16.8843 28.7406 16.8747 28.7301 16.865 28.7198C16.8551 28.7095 16.8451 28.6994 16.8348 28.6897C16.8246 28.6799 16.8141 28.6704 16.8034 28.6613C16.7926 28.6521 16.7817 28.6431 16.7706 28.6345C16.7595 28.6259 16.7481 28.6175 16.7366 28.6095C16.7251 28.6015 16.7134 28.5938 16.7015 28.5863C16.6896 28.579 16.6776 28.5719 16.6654 28.5651C16.6532 28.5583 16.6408 28.5519 16.6284 28.5458C16.6159 28.5396 16.6032 28.5338 16.5905 28.5284C16.5777 28.523 16.5648 28.5178 16.5518 28.5131C16.5387 28.5083 16.5256 28.5039 16.5124 28.4998C16.4992 28.4958 16.4859 28.492 16.4725 28.4887C16.4591 28.4853 16.4457 28.4823 16.4321 28.4796C16.4186 28.477 16.405 28.4747 16.3914 28.4727C16.3777 28.4708 16.3641 28.4692 16.3504 28.468C16.3367 28.4668 16.3229 28.4659 16.3092 28.4654C16.2954 28.465 16.2817 28.4648 16.2679 28.4651ZM19.7589 2.58875L2.31792 21.1924L9.13612 28.4651L13.4452 23.8542L9.64065 19.8105L11.0043 18.356L14.7816 22.3851L17.5089 19.476L12.0543 13.6578L13.4179 12.2033L18.8725 18.0214L21.5997 15.1124L17.727 11.1269L19.0906 9.67235L22.8679 13.6869L26.4679 9.86145L19.7589 2.58875ZM27.777 16.2905C27.7632 16.2905 27.7494 16.2909 27.7355 16.2916C27.7217 16.2924 27.7079 16.2934 27.6941 16.2949C27.6804 16.2963 27.6666 16.2981 27.653 16.3003C27.6393 16.3025 27.6256 16.305 27.6121 16.3079C27.5985 16.3108 27.585 16.314 27.5716 16.3176C27.5582 16.3212 27.5448 16.3251 27.5316 16.3294C27.5184 16.3337 27.5052 16.3383 27.4922 16.3433C27.4792 16.3483 27.4662 16.3536 27.4535 16.3592C27.4407 16.3649 27.428 16.3708 27.4156 16.3771C27.403 16.3834 27.3907 16.3901 27.3785 16.397C27.3663 16.404 27.3542 16.4113 27.3424 16.4189C27.3305 16.4264 27.3188 16.4344 27.3073 16.4425C27.2958 16.4507 27.2845 16.4592 27.2734 16.468C27.2622 16.4768 27.2514 16.4859 27.2407 16.4953C27.23 16.5046 27.2195 16.5143 27.2092 16.5242C27.199 16.5341 27.189 16.5442 27.1792 16.5547C27.1694 16.5651 27.1599 16.5758 27.1506 16.5867C27.1413 16.5977 27.1323 16.6089 27.1235 16.6203C27.1147 16.6317 27.1062 16.6433 27.098 16.6551C27.0897 16.667 27.0817 16.6791 27.074 16.6914C27.0664 16.7036 27.059 16.7161 27.0519 16.7287C27.0447 16.7414 27.0379 16.7543 27.0314 16.7673C27.0249 16.7803 27.0187 16.7934 27.0128 16.8068C27.0068 16.8201 27.0012 16.8336 26.9959 16.8473C26.9906 16.8609 26.9856 16.8747 26.981 16.8885C26.9763 16.9024 26.972 16.9164 26.968 16.9306C26.9639 16.9447 26.9603 16.9589 26.9569 16.9732C26.9535 16.9875 26.9505 17.0019 26.9478 17.0164C26.9451 17.0309 26.9427 17.0454 26.9407 17.06C26.9387 17.0747 26.937 17.0893 26.9356 17.104C26.9343 17.1187 26.9332 17.1334 26.9326 17.1481C26.9319 17.1629 26.9316 17.1776 26.9316 17.1924C26.9316 17.207 26.9319 17.2217 26.9326 17.2364C26.9332 17.251 26.9343 17.2657 26.9356 17.2802C26.937 17.2949 26.9387 17.3094 26.9407 17.3239C26.9428 17.3384 26.9451 17.3529 26.9479 17.3673C26.9506 17.3816 26.9536 17.3959 26.957 17.4102C26.9603 17.4244 26.9641 17.4385 26.9681 17.4526C26.9721 17.4666 26.9765 17.4805 26.9812 17.4943C26.9859 17.5081 26.9908 17.5218 26.9962 17.5353C27.0015 17.5489 27.0071 17.5622 27.0131 17.5754C27.019 17.5887 27.0252 17.6018 27.0318 17.6147C27.0383 17.6276 27.0452 17.6403 27.0523 17.6529C27.0594 17.6654 27.0668 17.6778 27.0746 17.6899C27.0823 17.702 27.0903 17.714 27.0985 17.7257C27.1068 17.7374 27.1153 17.7489 27.1241 17.7602C27.1329 17.7715 27.142 17.7825 27.1513 17.7933C27.1606 17.8041 27.1702 17.8147 27.18 17.8249C27.1898 17.8353 27.1998 17.8453 27.2101 17.855C27.2204 17.8648 27.2309 17.8743 27.2416 17.8835C27.2523 17.8927 27.2632 17.9016 27.2744 17.9102C27.2855 17.9189 27.2968 17.9272 27.3083 17.9352C27.3198 17.9433 27.3315 17.951 27.3434 17.9584C27.3553 17.9658 27.3673 17.9729 27.3795 17.9796C27.3917 17.9864 27.4041 17.9929 27.4166 17.999C27.4291 18.0051 27.4417 18.0109 27.4545 18.0163C27.4673 18.0218 27.4802 18.0269 27.4932 18.0316C27.5062 18.0364 27.5193 18.0408 27.5325 18.0449C27.5457 18.049 27.559 18.0527 27.5724 18.0561C27.5858 18.0594 27.5993 18.0624 27.6128 18.0651C27.6264 18.0678 27.6399 18.07 27.6536 18.072C27.6672 18.0739 27.6809 18.0755 27.6946 18.0767C27.7083 18.0779 27.722 18.0788 27.7358 18.0793C27.7495 18.0798 27.7633 18.0799 27.777 18.0796C27.7906 18.0796 27.8042 18.0793 27.8178 18.0786C27.8314 18.0779 27.845 18.0768 27.8586 18.0754C27.8721 18.0739 27.8856 18.0722 27.8991 18.07C27.9126 18.0679 27.9259 18.0654 27.9393 18.0626C27.9527 18.0598 27.9659 18.0566 27.9791 18.053C27.9923 18.0495 28.0055 18.0457 28.0185 18.0414C28.0315 18.0372 28.0444 18.0327 28.0572 18.0278C28.0701 18.0229 28.0827 18.0177 28.0953 18.0121C28.1079 18.0065 28.1204 18.0007 28.1327 17.9944C28.145 17.9883 28.1571 17.9817 28.1691 17.9749C28.1811 17.968 28.193 17.9609 28.2047 17.9534C28.2163 17.9459 28.2278 17.9382 28.2392 17.9301C28.2505 17.922 28.2616 17.9137 28.2725 17.905C28.2834 17.8964 28.2942 17.8874 28.3047 17.8782C28.3152 17.869 28.3256 17.8595 28.3356 17.8498C28.3457 17.84 28.3556 17.83 28.3652 17.8198C28.3748 17.8095 28.3842 17.799 28.3934 17.7882C28.4025 17.7775 28.4114 17.7665 28.42 17.7552C28.4286 17.744 28.437 17.7326 28.4451 17.7209C28.4532 17.7093 28.4611 17.6974 28.4687 17.6853C28.4762 17.6732 28.4835 17.661 28.4905 17.6485C28.4975 17.6361 28.5042 17.6234 28.5106 17.6106C28.517 17.5978 28.5232 17.5849 28.529 17.5717C28.5348 17.5586 28.5403 17.5454 28.5455 17.5319C28.5507 17.5185 28.5556 17.5049 28.5602 17.4913C28.5648 17.4776 28.5691 17.4638 28.573 17.4499C28.5769 17.436 28.5806 17.422 28.5839 17.4079C28.5872 17.3939 28.5902 17.3797 28.5929 17.3654C28.5955 17.3512 28.5978 17.3369 28.5998 17.3225C28.6018 17.3082 28.6035 17.2938 28.6048 17.2793C28.6062 17.2649 28.6072 17.2504 28.6079 17.2359C28.6085 17.2214 28.6089 17.2069 28.6089 17.1924C28.6091 17.1777 28.6089 17.163 28.6085 17.1484C28.608 17.1337 28.6072 17.119 28.6061 17.1044C28.605 17.0898 28.6035 17.0752 28.6017 17.0607C28.5999 17.0461 28.5977 17.0316 28.5952 17.0172C28.5927 17.0028 28.5899 16.9884 28.5867 16.9741C28.5836 16.9599 28.5801 16.9457 28.5763 16.9316C28.5725 16.9175 28.5683 16.9035 28.5639 16.8896C28.5594 16.8757 28.5546 16.862 28.5495 16.8484C28.5444 16.8347 28.5389 16.8213 28.5332 16.8079C28.5275 16.7946 28.5214 16.7814 28.5151 16.7684C28.5087 16.7554 28.5021 16.7425 28.4951 16.7299C28.4882 16.7172 28.4809 16.7047 28.4734 16.6924C28.4659 16.6802 28.4581 16.6681 28.45 16.6562C28.4419 16.6443 28.4336 16.6327 28.425 16.6213C28.4163 16.6098 28.4074 16.5986 28.3983 16.5877C28.3891 16.5767 28.3797 16.566 28.3701 16.5555C28.3604 16.5451 28.3505 16.5349 28.3404 16.5249C28.3303 16.515 28.32 16.5054 28.3094 16.4959C28.2988 16.4866 28.288 16.4775 28.277 16.4686C28.266 16.4598 28.2548 16.4513 28.2435 16.4431C28.2321 16.4349 28.2205 16.4269 28.2087 16.4193C28.1969 16.4117 28.185 16.4044 28.1729 16.3974C28.1608 16.3904 28.1486 16.3838 28.1362 16.3774C28.1238 16.3711 28.1112 16.3651 28.0985 16.3594C28.0858 16.3538 28.073 16.3484 28.0601 16.3434C28.0471 16.3385 28.0341 16.3338 28.021 16.3295C28.0078 16.3252 27.9946 16.3213 27.9812 16.3177C27.9679 16.3141 27.9545 16.3108 27.941 16.3079C27.9275 16.305 27.914 16.3025 27.9004 16.3003C27.8867 16.2982 27.8731 16.2964 27.8594 16.2949C27.8457 16.2934 27.832 16.2924 27.8183 16.2916C27.8045 16.2909 27.7908 16.2905 27.777 16.2905Z"   fill="#FFFFFF" >
  </path>
</svg>
